<svg width="105" height="42" viewBox="0 0 105 42" fill="none" xmlns="http://www.w3.org/2000/svg">
<rect y="10" width="80" height="32" rx="8" fill="#2563EB"/>
<path d="M12.852 30V21.6H18.12V22.632H14.124V25.284H17.436V26.304H14.124V30H12.852ZM20.8786 30.144C20.3746 30.144 19.9586 30.06 19.6306 29.892C19.3026 29.724 19.0586 29.504 18.8986 29.232C18.7386 28.952 18.6586 28.648 18.6586 28.32C18.6586 27.744 18.8826 27.288 19.3306 26.952C19.7786 26.616 20.4186 26.448 21.2506 26.448H22.8106V26.34C22.8106 25.876 22.6826 25.528 22.4266 25.296C22.1786 25.064 21.8546 24.948 21.4546 24.948C21.1026 24.948 20.7946 25.036 20.5306 25.212C20.2746 25.38 20.1186 25.632 20.0626 25.968H18.7906C18.8306 25.536 18.9746 25.168 19.2226 24.864C19.4786 24.552 19.7986 24.316 20.1826 24.156C20.5746 23.988 21.0026 23.904 21.4666 23.904C22.2986 23.904 22.9426 24.124 23.3986 24.564C23.8546 24.996 24.0826 25.588 24.0826 26.34V30H22.9786L22.8706 28.98C22.7026 29.308 22.4586 29.584 22.1386 29.808C21.8186 30.032 21.3986 30.144 20.8786 30.144ZM21.1306 29.112C21.4746 29.112 21.7626 29.032 21.9946 28.872C22.2346 28.704 22.4186 28.484 22.5466 28.212C22.6826 27.94 22.7666 27.64 22.7986 27.312H21.3826C20.8786 27.312 20.5186 27.4 20.3026 27.576C20.0946 27.752 19.9906 27.972 19.9906 28.236C19.9906 28.508 20.0906 28.724 20.2906 28.884C20.4986 29.036 20.7786 29.112 21.1306 29.112ZM28.3857 30.144C27.8017 30.144 27.2777 30.012 26.8137 29.748C26.3577 29.484 25.9977 29.12 25.7337 28.656C25.4777 28.184 25.3497 27.64 25.3497 27.024C25.3497 26.408 25.4777 25.868 25.7337 25.404C25.9977 24.932 26.3577 24.564 26.8137 24.3C27.2777 24.036 27.8017 23.904 28.3857 23.904C29.1217 23.904 29.7377 24.096 30.2337 24.48C30.7377 24.864 31.0617 25.384 31.2057 26.04H29.8737C29.7937 25.712 29.6177 25.456 29.3457 25.272C29.0737 25.088 28.7537 24.996 28.3857 24.996C28.0737 24.996 27.7857 25.076 27.5217 25.236C27.2577 25.388 27.0457 25.616 26.8857 25.92C26.7257 26.216 26.6457 26.584 26.6457 27.024C26.6457 27.464 26.7257 27.836 26.8857 28.14C27.0457 28.436 27.2577 28.664 27.5217 28.824C27.7857 28.984 28.0737 29.064 28.3857 29.064C28.7537 29.064 29.0737 28.972 29.3457 28.788C29.6177 28.604 29.7937 28.344 29.8737 28.008H31.2057C31.0697 28.648 30.7497 29.164 30.2457 29.556C29.7417 29.948 29.1217 30.144 28.3857 30.144ZM35.3693 30.144C34.7853 30.144 34.2653 30.016 33.8093 29.76C33.3613 29.496 33.0093 29.132 32.7533 28.668C32.4973 28.204 32.3693 27.664 32.3693 27.048C32.3693 26.424 32.4933 25.876 32.7413 25.404C32.9973 24.932 33.3493 24.564 33.7973 24.3C34.2533 24.036 34.7813 23.904 35.3813 23.904C35.9653 23.904 36.4733 24.036 36.9053 24.3C37.3373 24.556 37.6733 24.9 37.9133 25.332C38.1533 25.764 38.2733 26.24 38.2733 26.76C38.2733 26.84 38.2693 26.928 38.2613 27.024C38.2613 27.112 38.2573 27.212 38.2493 27.324H33.6173C33.6573 27.9 33.8453 28.34 34.1813 28.644C34.5253 28.94 34.9213 29.088 35.3693 29.088C35.7293 29.088 36.0293 29.008 36.2693 28.848C36.5173 28.68 36.7013 28.456 36.8213 28.176H38.0933C37.9333 28.736 37.6133 29.204 37.1333 29.58C36.6613 29.956 36.0733 30.144 35.3693 30.144ZM35.3693 24.948C34.9453 24.948 34.5693 25.076 34.2413 25.332C33.9133 25.58 33.7133 25.956 33.6413 26.46H37.0013C36.9773 25.996 36.8133 25.628 36.5093 25.356C36.2053 25.084 35.8253 24.948 35.3693 24.948ZM42.9411 30.144C42.4771 30.144 42.0651 30.052 41.7051 29.868C41.3531 29.684 41.0731 29.424 40.8651 29.088L40.7331 30H39.5931V21.36H40.8651V24.972C41.0571 24.692 41.3211 24.444 41.6571 24.228C41.9931 24.012 42.4251 23.904 42.9531 23.904C43.5291 23.904 44.0371 24.04 44.4771 24.312C44.9171 24.584 45.2611 24.956 45.5091 25.428C45.7651 25.9 45.8931 26.436 45.8931 27.036C45.8931 27.636 45.7651 28.172 45.5091 28.644C45.2611 29.108 44.9171 29.476 44.4771 29.748C44.0371 30.012 43.5251 30.144 42.9411 30.144ZM42.7251 29.04C43.2691 29.04 43.7171 28.856 44.0691 28.488C44.4211 28.112 44.5971 27.624 44.5971 27.024C44.5971 26.632 44.5171 26.284 44.3571 25.98C44.1971 25.676 43.9771 25.44 43.6971 25.272C43.4171 25.096 43.0931 25.008 42.7251 25.008C42.1811 25.008 41.7331 25.196 41.3811 25.572C41.0371 25.948 40.8651 26.432 40.8651 27.024C40.8651 27.624 41.0371 28.112 41.3811 28.488C41.7331 28.856 42.1811 29.04 42.7251 29.04ZM50.0528 30.144C49.4848 30.144 48.9728 30.016 48.5168 29.76C48.0688 29.496 47.7128 29.132 47.4488 28.668C47.1848 28.196 47.0528 27.648 47.0528 27.024C47.0528 26.4 47.1848 25.856 47.4488 25.392C47.7208 24.92 48.0848 24.556 48.5408 24.3C48.9968 24.036 49.5048 23.904 50.0648 23.904C50.6328 23.904 51.1408 24.036 51.5888 24.3C52.0448 24.556 52.4048 24.92 52.6688 25.392C52.9408 25.856 53.0768 26.4 53.0768 27.024C53.0768 27.648 52.9408 28.196 52.6688 28.668C52.4048 29.132 52.0448 29.496 51.5888 29.76C51.1328 30.016 50.6208 30.144 50.0528 30.144ZM50.0528 29.052C50.3568 29.052 50.6368 28.976 50.8928 28.824C51.1568 28.672 51.3688 28.448 51.5288 28.152C51.6888 27.848 51.7688 27.472 51.7688 27.024C51.7688 26.576 51.6888 26.204 51.5288 25.908C51.3768 25.604 51.1688 25.376 50.9048 25.224C50.6488 25.072 50.3688 24.996 50.0648 24.996C49.7608 24.996 49.4768 25.072 49.2128 25.224C48.9568 25.376 48.7488 25.604 48.5888 25.908C48.4288 26.204 48.3488 26.576 48.3488 27.024C48.3488 27.472 48.4288 27.848 48.5888 28.152C48.7488 28.448 48.9568 28.672 49.2128 28.824C49.4688 28.976 49.7488 29.052 50.0528 29.052ZM57.2364 30.144C56.6684 30.144 56.1564 30.016 55.7004 29.76C55.2524 29.496 54.8964 29.132 54.6324 28.668C54.3684 28.196 54.2364 27.648 54.2364 27.024C54.2364 26.4 54.3684 25.856 54.6324 25.392C54.9044 24.92 55.2684 24.556 55.7244 24.3C56.1804 24.036 56.6884 23.904 57.2484 23.904C57.8164 23.904 58.3244 24.036 58.7724 24.3C59.2284 24.556 59.5884 24.92 59.8524 25.392C60.1244 25.856 60.2604 26.4 60.2604 27.024C60.2604 27.648 60.1244 28.196 59.8524 28.668C59.5884 29.132 59.2284 29.496 58.7724 29.76C58.3164 30.016 57.8044 30.144 57.2364 30.144ZM57.2364 29.052C57.5404 29.052 57.8204 28.976 58.0764 28.824C58.3404 28.672 58.5524 28.448 58.7124 28.152C58.8724 27.848 58.9524 27.472 58.9524 27.024C58.9524 26.576 58.8724 26.204 58.7124 25.908C58.5604 25.604 58.3524 25.376 58.0884 25.224C57.8324 25.072 57.5524 24.996 57.2484 24.996C56.9444 24.996 56.6604 25.072 56.3964 25.224C56.1404 25.376 55.9324 25.604 55.7724 25.908C55.6124 26.204 55.5324 26.576 55.5324 27.024C55.5324 27.472 55.6124 27.848 55.7724 28.152C55.9324 28.448 56.1404 28.672 56.3964 28.824C56.6524 28.976 56.9324 29.052 57.2364 29.052ZM61.636 30V21.36H62.908V26.508L65.188 24.048H66.712L64.18 26.748L67.084 30H65.476L62.908 26.952V30H61.636Z" fill="white"/>
<path d="M103.847 2.93149C104.777 1.73879 103.927 -1.34355e-08 102.415 -7.949e-08L81.8199 -9.79747e-07C80.0981 -1.05501e-06 79.3425 2.17349 80.6938 3.24146L87.1113 8.31496C87.3479 8.50215 87.5389 8.74047 87.6702 9.01204C87.8015 9.28361 87.8696 9.58138 87.8693 9.88302L87.8693 18.1798C87.8693 19.9089 90.0586 20.6609 91.1193 19.295L103.847 2.93149Z" fill="#2563EB"/>
</svg>
