<svg width="507" height="504" viewBox="0 0 507 504" fill="none" xmlns="http://www.w3.org/2000/svg">
<path d="M221.6 3.06661C218.667 6.13328 218.667 6.66661 218.667 56.1333V106.133L222.8 112.8C228.533 121.867 313.866 206.8 320.533 209.867C324.133 211.467 328.8 212.267 336.133 212.267C345.2 212.267 347.466 211.733 352.933 208.533C360 204.4 419.866 146 424.133 139.2C427.866 133.067 426.933 131.733 405.066 109.6C387.466 91.7333 386.666 91.1999 382 91.7333C378.266 92.1333 374.8 94.3999 366.933 101.6C361.333 106.667 354.266 113.467 351.333 116.533C348.4 119.6 336.533 131.2 324.933 142.4C301.866 164.667 299.733 165.733 292.4 159.467L288.666 156.267L288.266 79.7333C287.866 29.9999 287.333 2.79995 286.4 1.59995C285.333 0.399948 277.333 -5.24521e-05 254.8 -5.24521e-05C224.8 -5.24521e-05 224.4 -5.24521e-05 221.6 3.06661Z" fill="white"/>
<path d="M127.733 86.4001C115.6 97.3334 92 122.4 92 124.267C92 127.733 96.5333 132.8 130.267 166.933C162.667 199.867 164 201.333 164 206.4C164 210 163.067 212.4 160.933 214.4L157.867 217.333H82.2667H6.8L3.46667 220.533L0 223.6V251.6V279.6L3.33333 282.667L6.53333 285.733L57.6 285.067C103.867 284.533 109.2 284.267 114 282C120.4 278.933 209.067 191.067 212.8 184C214.533 180.667 215.333 176.533 215.333 169.333C215.333 160.667 214.8 158.4 211.467 152.667C209.333 149.067 193.2 131.733 174.8 113.067C147.733 85.8667 141.333 80.0001 138.4 80.0001C135.867 80.0001 132.4 82.0001 127.733 86.4001Z" fill="white"/>
<path d="M427.333 218.534C399.333 219.334 396.266 219.6 391.333 222.267C385.2 225.467 306.666 303.334 298.266 314.4C292.8 321.6 292.666 322.134 292.266 333.2C291.866 344.267 292 344.934 296.266 351.334C298.666 354.934 314.933 372.534 332.533 390.267C366.666 425.067 367.066 425.334 375.733 420.8C377.733 419.734 387.333 410.8 397.066 400.934C418.8 378.934 418.8 379.334 405.466 364.4C400.4 358.667 385.066 342.934 371.333 329.334C340.933 299.2 339.6 297.067 345.866 289.734L349.066 286L425.733 285.334C487.866 284.8 502.666 284.267 504.4 282.8C506.4 281.2 506.666 277.334 506.666 252.134C506.666 230.934 506.266 222.667 505.066 221.067C502.933 218.4 473.066 217.467 427.333 218.534Z" fill="white"/>
<path d="M157.067 293.733C150.8 296.667 140.667 306.133 98.4002 349.067C88.9335 358.533 81.3335 367.2 81.3335 368.267C81.3335 370.933 116.533 407.467 121.733 410.133C124.133 411.467 126.933 411.867 129.067 411.333C131.2 410.8 144.667 398.533 162.667 380.8C203.867 340.133 204.667 339.467 209.734 340.533C212 340.933 214.934 342.4 216.267 343.6C218.534 345.6 218.667 349.733 218.8 413.2C218.8 478.8 219.6 500 221.867 502.267C222.4 502.8 236.534 503.333 253.2 503.333C277.067 503.333 284.134 502.933 285.734 501.467C287.734 499.867 288 494.667 288 450.8C287.867 424 287.334 399.467 286.8 396.4C286 392.533 283.6 388.267 279.334 383.333C267.067 368.933 196.534 299.067 190.134 294.933C184.134 291.067 182.534 290.667 173.467 290.667C165.734 290.667 161.867 291.467 157.067 293.733Z" fill="white"/>
</svg>
