<svg width="367" height="365" viewBox="0 0 367 365" fill="none" xmlns="http://www.w3.org/2000/svg">
<path d="M160.514 2.22147C158.39 4.44278 158.39 4.8291 158.39 40.6599V76.877L161.384 81.706C165.536 88.2733 227.347 149.794 232.176 152.015C234.784 153.174 238.164 153.754 243.476 153.754C250.043 153.754 251.685 153.368 255.645 151.05C260.763 148.056 304.127 105.754 307.218 100.829C309.922 96.386 309.246 95.4202 293.407 79.3881C280.659 66.4465 280.079 66.0602 276.699 66.4465C273.995 66.7362 271.484 68.3781 265.785 73.5933C261.729 77.2633 256.61 82.1889 254.486 84.4102C252.361 86.6315 243.765 95.0339 235.363 103.147C218.655 119.275 217.11 120.048 211.798 115.509L209.094 113.191L208.804 57.7544C208.514 21.7304 208.128 2.02831 207.452 1.1591C206.679 0.289887 200.884 0.000149548 184.563 0.000149548C162.832 0.000149548 162.543 0.000149548 160.514 2.22147Z" fill="white"/>
<path d="M92.5227 62.5831C83.734 70.5026 66.6395 88.6595 66.6395 90.0116C66.6395 92.5226 69.9232 96.1926 94.3577 120.917C117.826 144.772 118.792 145.834 118.792 149.504C118.792 152.112 118.116 153.85 116.571 155.299L114.35 157.424H59.5892H4.92553L2.51105 159.742L0 161.963V182.245V202.526L2.41448 204.747L4.73237 206.969L41.7221 206.486C75.235 206.1 79.0982 205.906 82.575 204.265C87.2108 202.043 151.436 138.398 154.14 133.279C155.396 130.864 155.975 127.871 155.975 122.655C155.975 116.378 155.589 114.736 153.174 110.583C151.629 107.975 139.943 95.42 126.615 81.8989C107.01 62.1968 102.374 57.9474 100.249 57.9474C98.414 57.9474 95.9029 59.396 92.5227 62.5831Z" fill="white"/>
<path d="M309.536 158.293C289.254 158.873 287.033 159.066 283.459 160.997C279.017 163.315 222.132 219.717 216.047 227.734C212.087 232.949 211.991 233.335 211.701 241.351C211.411 249.367 211.508 249.85 214.599 254.486C216.337 257.094 228.12 269.842 240.868 282.687C265.592 307.894 265.882 308.087 272.16 304.804C273.608 304.031 280.562 297.56 287.612 290.413C303.355 274.478 303.355 274.768 293.697 263.951C290.027 259.798 278.92 248.401 268.972 238.55C246.952 216.724 245.987 215.178 250.526 209.866L252.844 207.162L308.377 206.679C353.383 206.293 364.103 205.907 365.358 204.844C366.807 203.685 367 200.885 367 182.631C367 167.275 366.71 161.287 365.841 160.128C364.296 158.197 342.662 157.521 309.536 158.293Z" fill="white"/>
<path d="M113.77 212.764C109.231 214.888 101.891 221.746 71.2757 252.844C64.4186 259.701 58.9136 265.979 58.9136 266.751C58.9136 268.683 84.4104 295.146 88.177 297.077C89.9154 298.043 91.9436 298.333 93.4889 297.946C95.0341 297.56 104.789 288.675 117.827 275.83C147.67 246.373 148.249 245.89 151.919 246.663C153.561 246.953 155.686 248.015 156.652 248.884C158.293 250.333 158.39 253.327 158.487 299.299C158.487 346.815 159.066 362.171 160.708 363.813C161.094 364.2 171.332 364.586 183.404 364.586C200.692 364.586 205.81 364.296 206.969 363.234C208.418 362.075 208.611 358.308 208.611 326.534C208.514 307.121 208.128 289.351 207.742 287.13C207.162 284.329 205.424 281.238 202.333 277.665C193.448 267.234 142.358 216.627 137.722 213.633C133.376 210.832 132.217 210.542 125.65 210.542C120.048 210.542 117.247 211.122 113.77 212.764Z" fill="white"/>
</svg>
