<svg width="106" height="42" viewBox="0 0 106 42" fill="none" xmlns="http://www.w3.org/2000/svg">
<rect y="10" width="81" height="32" rx="8" fill="#DB2777"/>
<path d="M12.852 30V21.6H14.124V30H12.852ZM15.7806 30V24.048H16.9086L17.0046 25.092C17.1886 24.724 17.4566 24.436 17.8086 24.228C18.1686 24.012 18.5806 23.904 19.0446 23.904C19.7646 23.904 20.3286 24.128 20.7366 24.576C21.1526 25.024 21.3606 25.692 21.3606 26.58V30H20.1006V26.712C20.1006 25.56 19.6286 24.984 18.6846 24.984C18.2126 24.984 17.8206 25.152 17.5086 25.488C17.2046 25.824 17.0526 26.304 17.0526 26.928V30H15.7806ZM25.2347 30.144C24.4827 30.144 23.8627 29.96 23.3747 29.592C22.8867 29.224 22.6067 28.736 22.5347 28.128H23.8187C23.8827 28.4 24.0347 28.636 24.2747 28.836C24.5147 29.028 24.8307 29.124 25.2227 29.124C25.6067 29.124 25.8867 29.044 26.0627 28.884C26.2387 28.724 26.3267 28.54 26.3267 28.332C26.3267 28.028 26.2027 27.824 25.9547 27.72C25.7147 27.608 25.3787 27.508 24.9467 27.42C24.6107 27.348 24.2747 27.252 23.9387 27.132C23.6107 27.012 23.3347 26.844 23.1107 26.628C22.8947 26.404 22.7867 26.104 22.7867 25.728C22.7867 25.208 22.9867 24.776 23.3867 24.432C23.7867 24.08 24.3467 23.904 25.0667 23.904C25.7307 23.904 26.2667 24.064 26.6747 24.384C27.0907 24.704 27.3347 25.156 27.4067 25.74H26.1827C26.1427 25.484 26.0227 25.284 25.8227 25.14C25.6307 24.996 25.3707 24.924 25.0427 24.924C24.7227 24.924 24.4747 24.992 24.2987 25.128C24.1227 25.256 24.0347 25.424 24.0347 25.632C24.0347 25.84 24.1547 26.004 24.3947 26.124C24.6427 26.244 24.9667 26.352 25.3667 26.448C25.7667 26.536 26.1347 26.64 26.4707 26.76C26.8147 26.872 27.0907 27.04 27.2987 27.264C27.5067 27.488 27.6107 27.816 27.6107 28.248C27.6187 28.792 27.4067 29.244 26.9747 29.604C26.5507 29.964 25.9707 30.144 25.2347 30.144ZM31.2727 30C30.6887 30 30.2247 29.86 29.8807 29.58C29.5367 29.292 29.3647 28.784 29.3647 28.056V25.116H28.3447V24.048H29.3647L29.5207 22.536H30.6367V24.048H32.3167V25.116H30.6367V28.056C30.6367 28.384 30.7047 28.612 30.8407 28.74C30.9847 28.86 31.2287 28.92 31.5727 28.92H32.2567V30H31.2727ZM35.6442 30.144C35.1402 30.144 34.7242 30.06 34.3962 29.892C34.0682 29.724 33.8242 29.504 33.6642 29.232C33.5042 28.952 33.4242 28.648 33.4242 28.32C33.4242 27.744 33.6482 27.288 34.0962 26.952C34.5442 26.616 35.1842 26.448 36.0162 26.448H37.5762V26.34C37.5762 25.876 37.4482 25.528 37.1922 25.296C36.9442 25.064 36.6202 24.948 36.2202 24.948C35.8682 24.948 35.5602 25.036 35.2962 25.212C35.0402 25.38 34.8842 25.632 34.8282 25.968H33.5562C33.5962 25.536 33.7402 25.168 33.9882 24.864C34.2442 24.552 34.5642 24.316 34.9482 24.156C35.3402 23.988 35.7682 23.904 36.2322 23.904C37.0642 23.904 37.7082 24.124 38.1642 24.564C38.6202 24.996 38.8482 25.588 38.8482 26.34V30H37.7442L37.6362 28.98C37.4682 29.308 37.2242 29.584 36.9042 29.808C36.5842 30.032 36.1642 30.144 35.6442 30.144ZM35.8962 29.112C36.2402 29.112 36.5282 29.032 36.7602 28.872C37.0002 28.704 37.1842 28.484 37.3122 28.212C37.4482 27.94 37.5322 27.64 37.5642 27.312H36.1482C35.6442 27.312 35.2842 27.4 35.0682 27.576C34.8602 27.752 34.7562 27.972 34.7562 28.236C34.7562 28.508 34.8562 28.724 35.0562 28.884C35.2642 29.036 35.5442 29.112 35.8962 29.112ZM42.7673 28.176C42.4553 28.176 42.1673 28.14 41.9033 28.068L41.3873 28.572C41.4753 28.628 41.5833 28.676 41.7113 28.716C41.8393 28.756 42.0193 28.792 42.2513 28.824C42.4833 28.856 42.7993 28.888 43.1993 28.92C43.9913 28.992 44.5633 29.184 44.9153 29.496C45.2673 29.8 45.4433 30.208 45.4433 30.72C45.4433 31.072 45.3473 31.404 45.1553 31.716C44.9713 32.036 44.6793 32.292 44.2793 32.484C43.8873 32.684 43.3833 32.784 42.7673 32.784C41.9353 32.784 41.2593 32.624 40.7393 32.304C40.2273 31.992 39.9713 31.516 39.9713 30.876C39.9713 30.628 40.0353 30.38 40.1633 30.132C40.2993 29.892 40.5113 29.664 40.7993 29.448C40.6313 29.376 40.4833 29.3 40.3553 29.22C40.2353 29.132 40.1273 29.044 40.0313 28.956V28.668L41.0633 27.612C40.5993 27.212 40.3673 26.688 40.3673 26.04C40.3673 25.648 40.4593 25.292 40.6433 24.972C40.8353 24.644 41.1113 24.384 41.4713 24.192C41.8313 24 42.2633 23.904 42.7673 23.904C43.1033 23.904 43.4153 23.952 43.7033 24.048H45.9233V24.888L44.8673 24.948C45.0593 25.276 45.1553 25.64 45.1553 26.04C45.1553 26.44 45.0593 26.8 44.8673 27.12C44.6833 27.44 44.4113 27.696 44.0513 27.888C43.6993 28.08 43.2713 28.176 42.7673 28.176ZM42.7673 27.18C43.1353 27.18 43.4313 27.084 43.6553 26.892C43.8873 26.692 44.0033 26.412 44.0033 26.052C44.0033 25.684 43.8873 25.404 43.6553 25.212C43.4313 25.02 43.1353 24.924 42.7673 24.924C42.3913 24.924 42.0873 25.02 41.8553 25.212C41.6313 25.404 41.5193 25.684 41.5193 26.052C41.5193 26.412 41.6313 26.692 41.8553 26.892C42.0873 27.084 42.3913 27.18 42.7673 27.18ZM41.1713 30.756C41.1713 31.1 41.3233 31.356 41.6273 31.524C41.9313 31.7 42.3113 31.788 42.7673 31.788C43.2073 31.788 43.5633 31.692 43.8353 31.5C44.1073 31.316 44.2433 31.068 44.2433 30.756C44.2433 30.524 44.1513 30.324 43.9673 30.156C43.7833 29.996 43.4353 29.896 42.9233 29.856C42.5393 29.832 42.1993 29.796 41.9033 29.748C41.6233 29.9 41.4313 30.064 41.3273 30.24C41.2233 30.416 41.1713 30.588 41.1713 30.756ZM47.0579 30V24.048H48.1979L48.3059 25.176C48.5139 24.784 48.8019 24.476 49.1699 24.252C49.5459 24.02 49.9979 23.904 50.5259 23.904V25.236H50.1779C49.8259 25.236 49.5099 25.296 49.2299 25.416C48.9579 25.528 48.7379 25.724 48.5699 26.004C48.4099 26.276 48.3299 26.656 48.3299 27.144V30H47.0579ZM53.6325 30.144C53.1285 30.144 52.7125 30.06 52.3845 29.892C52.0565 29.724 51.8125 29.504 51.6525 29.232C51.4925 28.952 51.4125 28.648 51.4125 28.32C51.4125 27.744 51.6365 27.288 52.0845 26.952C52.5325 26.616 53.1725 26.448 54.0045 26.448H55.5645V26.34C55.5645 25.876 55.4365 25.528 55.1805 25.296C54.9325 25.064 54.6085 24.948 54.2085 24.948C53.8565 24.948 53.5485 25.036 53.2845 25.212C53.0285 25.38 52.8725 25.632 52.8165 25.968H51.5445C51.5845 25.536 51.7285 25.168 51.9765 24.864C52.2325 24.552 52.5525 24.316 52.9365 24.156C53.3285 23.988 53.7565 23.904 54.2205 23.904C55.0525 23.904 55.6965 24.124 56.1525 24.564C56.6085 24.996 56.8365 25.588 56.8365 26.34V30H55.7325L55.6245 28.98C55.4565 29.308 55.2125 29.584 54.8925 29.808C54.5725 30.032 54.1525 30.144 53.6325 30.144ZM53.8845 29.112C54.2285 29.112 54.5165 29.032 54.7485 28.872C54.9885 28.704 55.1725 28.484 55.3005 28.212C55.4365 27.94 55.5205 27.64 55.5525 27.312H54.1365C53.6325 27.312 53.2725 27.4 53.0565 27.576C52.8485 27.752 52.7445 27.972 52.7445 28.236C52.7445 28.508 52.8445 28.724 53.0445 28.884C53.2525 29.036 53.5325 29.112 53.8845 29.112ZM58.3196 30V24.048H59.4476L59.5556 24.888C59.7476 24.584 59.9996 24.344 60.3116 24.168C60.6316 23.992 60.9996 23.904 61.4156 23.904C62.3596 23.904 63.0156 24.276 63.3836 25.02C63.5996 24.676 63.8876 24.404 64.2476 24.204C64.6156 24.004 65.0116 23.904 65.4356 23.904C66.1796 23.904 66.7636 24.128 67.1876 24.576C67.6116 25.024 67.8236 25.692 67.8236 26.58V30H66.5516V26.712C66.5516 25.56 66.1116 24.984 65.2316 24.984C64.7836 24.984 64.4156 25.152 64.1276 25.488C63.8476 25.824 63.7076 26.304 63.7076 26.928V30H62.4356V26.712C62.4356 25.56 61.9916 24.984 61.1036 24.984C60.6636 24.984 60.2996 25.152 60.0116 25.488C59.7316 25.824 59.5916 26.304 59.5916 26.928V30H58.3196Z" fill="white"/>
<path d="M104.847 2.93149C105.777 1.73879 104.927 -1.34355e-08 103.415 -7.949e-08L82.8199 -9.79747e-07C81.0981 -1.05501e-06 80.3425 2.17349 81.6938 3.24146L88.1113 8.31496C88.3479 8.50215 88.5389 8.74047 88.6702 9.01204C88.8015 9.28361 88.8696 9.58138 88.8693 9.88302L88.8693 18.1798C88.8693 19.9089 91.0586 20.6609 92.1193 19.295L104.847 2.93149Z" fill="#DB2777"/>
</svg>
