<svg width="97" height="43" viewBox="0 0 97 43" fill="none" xmlns="http://www.w3.org/2000/svg">
<rect width="71.9971" height="31.9987" rx="8" transform="matrix(-1 0 0 1 97 10.1016)" fill="#0891B2"/>
<path d="M37.8535 30.1009V21.7009H39.1255V29.0929H42.9415V30.1009H37.8535ZM44.9825 23.0209C44.7425 23.0209 44.5425 22.9489 44.3825 22.8049C44.2305 22.6529 44.1545 22.4649 44.1545 22.2409C44.1545 22.0169 44.2305 21.8329 44.3825 21.6889C44.5425 21.5369 44.7425 21.4609 44.9825 21.4609C45.2225 21.4609 45.4185 21.5369 45.5705 21.6889C45.7305 21.8329 45.8105 22.0169 45.8105 22.2409C45.8105 22.4649 45.7305 22.6529 45.5705 22.8049C45.4185 22.9489 45.2225 23.0209 44.9825 23.0209ZM44.3465 30.1009V24.1489H45.6185V30.1009H44.3465ZM47.2977 30.1009V24.1489H48.4257L48.5217 25.1929C48.7057 24.8249 48.9737 24.5369 49.3257 24.3289C49.6857 24.1129 50.0977 24.0049 50.5617 24.0049C51.2817 24.0049 51.8457 24.2289 52.2537 24.6769C52.6697 25.1249 52.8777 25.7929 52.8777 26.6809V30.1009H51.6177V26.8129C51.6177 25.6609 51.1457 25.0849 50.2017 25.0849C49.7297 25.0849 49.3377 25.2529 49.0257 25.5889C48.7217 25.9249 48.5697 26.4049 48.5697 27.0289V30.1009H47.2977ZM54.3758 30.1009V21.4609H55.6478V26.6089L57.9278 24.1489H59.4518L56.9198 26.8489L59.8238 30.1009H58.2158L55.6478 27.0529V30.1009H54.3758ZM63.1363 30.2449C62.5523 30.2449 62.0323 30.1169 61.5763 29.8609C61.1283 29.5969 60.7763 29.2329 60.5203 28.7689C60.2643 28.3049 60.1363 27.7649 60.1363 27.1489C60.1363 26.5249 60.2603 25.9769 60.5083 25.5049C60.7643 25.0329 61.1163 24.6649 61.5643 24.4009C62.0203 24.1369 62.5483 24.0049 63.1483 24.0049C63.7323 24.0049 64.2403 24.1369 64.6723 24.4009C65.1043 24.6569 65.4403 25.0009 65.6803 25.4329C65.9203 25.8649 66.0403 26.3409 66.0403 26.8609C66.0403 26.9409 66.0363 27.0289 66.0283 27.1249C66.0283 27.2129 66.0243 27.3129 66.0163 27.4249H61.3843C61.4243 28.0009 61.6123 28.4409 61.9483 28.7449C62.2923 29.0409 62.6883 29.1889 63.1363 29.1889C63.4963 29.1889 63.7963 29.1089 64.0363 28.9489C64.2843 28.7809 64.4683 28.5569 64.5883 28.2769H65.8603C65.7003 28.8369 65.3803 29.3049 64.9003 29.6809C64.4283 30.0569 63.8403 30.2449 63.1363 30.2449ZM63.1363 25.0489C62.7123 25.0489 62.3363 25.1769 62.0083 25.4329C61.6803 25.6809 61.4803 26.0569 61.4083 26.5609H64.7683C64.7443 26.0969 64.5803 25.7289 64.2763 25.4569C63.9723 25.1849 63.5923 25.0489 63.1363 25.0489ZM70.0722 30.2449C69.4962 30.2449 68.9882 30.1089 68.5482 29.8369C68.1082 29.5649 67.7642 29.1929 67.5162 28.7209C67.2682 28.2489 67.1442 27.7129 67.1442 27.1129C67.1442 26.5129 67.2682 25.9809 67.5162 25.5169C67.7642 25.0449 68.1082 24.6769 68.5482 24.4129C68.9962 24.1409 69.5082 24.0049 70.0842 24.0049C70.5562 24.0049 70.9682 24.0969 71.3202 24.2809C71.6802 24.4649 71.9602 24.7249 72.1602 25.0609V21.4609H73.4322V30.1009H72.2922L72.1602 29.1769C71.9682 29.4569 71.7042 29.7049 71.3682 29.9209C71.0322 30.1369 70.6002 30.2449 70.0722 30.2449ZM70.3002 29.1409C70.8442 29.1409 71.2882 28.9529 71.6322 28.5769C71.9842 28.2009 72.1602 27.7169 72.1602 27.1249C72.1602 26.5249 71.9842 26.0409 71.6322 25.6729C71.2882 25.2969 70.8442 25.1089 70.3002 25.1089C69.7562 25.1089 69.3082 25.2969 68.9562 25.6729C68.6042 26.0409 68.4282 26.5249 68.4282 27.1249C68.4282 27.5169 68.5082 27.8649 68.6682 28.1689C68.8282 28.4729 69.0482 28.7129 69.3282 28.8889C69.6162 29.0569 69.9402 29.1409 70.3002 29.1409ZM75.0839 30.1009V21.7009H76.3559V30.1009H75.0839ZM78.0125 30.1009V24.1489H79.1405L79.2365 25.1929C79.4205 24.8249 79.6885 24.5369 80.0405 24.3289C80.4005 24.1129 80.8125 24.0049 81.2765 24.0049C81.9965 24.0049 82.5605 24.2289 82.9685 24.6769C83.3845 25.1249 83.5925 25.7929 83.5925 26.6809V30.1009H82.3325V26.8129C82.3325 25.6609 81.8605 25.0849 80.9165 25.0849C80.4445 25.0849 80.0525 25.2529 79.7405 25.5889C79.4365 25.9249 79.2845 26.4049 79.2845 27.0289V30.1009H78.0125Z" fill="white"/>
<path d="M1.15729 3.03336C0.227389 1.84071 1.07738 0.10199 2.58847 0.10199L23.1831 0.101989C24.9049 0.101989 25.6604 2.27539 24.3092 3.34332L17.8919 8.41661C17.6554 8.6038 17.4643 8.84211 17.333 9.11367C17.2018 9.38523 17.1337 9.68298 17.1339 9.98461L17.1339 18.2811C17.1339 20.0101 14.9448 20.762 13.8841 19.3962L1.15729 3.03336Z" fill="#0891B2"/>
</svg>
