<svg width="89" height="43" viewBox="0 0 89 43" fill="none" xmlns="http://www.w3.org/2000/svg">
<rect width="63.9972" height="31.9986" rx="8" transform="matrix(-1 0 0 1 89 10.0149)" fill="#9333EA"/>
<path d="M39.8215 30.0142V22.6462H37.3375V21.6142H43.5655V22.6462H41.0935V30.0142H39.8215ZM45.2396 30.0142L43.4876 24.0622H44.7596L45.9116 28.5502L47.2076 24.0622H48.6236L49.9196 28.5502L51.0716 24.0622H52.3436L50.5916 30.0142H49.2836L47.9156 25.3342L46.5476 30.0142H45.2396ZM54.1114 22.9342C53.8714 22.9342 53.6714 22.8622 53.5114 22.7182C53.3594 22.5662 53.2834 22.3782 53.2834 22.1542C53.2834 21.9302 53.3594 21.7462 53.5114 21.6022C53.6714 21.4502 53.8714 21.3742 54.1114 21.3742C54.3514 21.3742 54.5474 21.4502 54.6994 21.6022C54.8594 21.7462 54.9394 21.9302 54.9394 22.1542C54.9394 22.3782 54.8594 22.5662 54.6994 22.7182C54.5474 22.8622 54.3514 22.9342 54.1114 22.9342ZM53.4754 30.0142V24.0622H54.7474V30.0142H53.4754ZM58.9226 30.0142C58.3386 30.0142 57.8746 29.8742 57.5306 29.5942C57.1866 29.3062 57.0146 28.7982 57.0146 28.0702V25.1302H55.9946V24.0622H57.0146L57.1706 22.5502H58.2866V24.0622H59.9666V25.1302H58.2866V28.0702C58.2866 28.3982 58.3546 28.6262 58.4906 28.7542C58.6346 28.8742 58.8786 28.9342 59.2226 28.9342H59.9066V30.0142H58.9226ZM63.7741 30.0142C63.1901 30.0142 62.7261 29.8742 62.3821 29.5942C62.0381 29.3062 61.8661 28.7982 61.8661 28.0702V25.1302H60.8461V24.0622H61.8661L62.0221 22.5502H63.1381V24.0622H64.8181V25.1302H63.1381V28.0702C63.1381 28.3982 63.2061 28.6262 63.3421 28.7542C63.4861 28.8742 63.7301 28.9342 64.0741 28.9342H64.7581V30.0142H63.7741ZM68.7613 30.1582C68.1773 30.1582 67.6573 30.0302 67.2013 29.7742C66.7533 29.5102 66.4013 29.1462 66.1453 28.6822C65.8893 28.2182 65.7613 27.6782 65.7613 27.0622C65.7613 26.4382 65.8853 25.8902 66.1333 25.4182C66.3893 24.9462 66.7413 24.5782 67.1893 24.3142C67.6453 24.0502 68.1733 23.9182 68.7733 23.9182C69.3573 23.9182 69.8653 24.0502 70.2973 24.3142C70.7293 24.5702 71.0653 24.9142 71.3053 25.3462C71.5453 25.7782 71.6653 26.2542 71.6653 26.7742C71.6653 26.8542 71.6613 26.9422 71.6533 27.0382C71.6533 27.1262 71.6493 27.2262 71.6413 27.3382H67.0093C67.0493 27.9142 67.2373 28.3542 67.5733 28.6582C67.9173 28.9542 68.3133 29.1022 68.7613 29.1022C69.1213 29.1022 69.4213 29.0222 69.6613 28.8622C69.9093 28.6942 70.0933 28.4702 70.2133 28.1902H71.4853C71.3253 28.7502 71.0053 29.2182 70.5253 29.5942C70.0533 29.9702 69.4653 30.1582 68.7613 30.1582ZM68.7613 24.9622C68.3373 24.9622 67.9613 25.0902 67.6333 25.3462C67.3053 25.5942 67.1053 25.9702 67.0333 26.4742H70.3933C70.3693 26.0102 70.2053 25.6422 69.9013 25.3702C69.5973 25.0982 69.2173 24.9622 68.7613 24.9622ZM72.9852 30.0142V24.0622H74.1252L74.2332 25.1902C74.4412 24.7982 74.7292 24.4902 75.0972 24.2662C75.4732 24.0342 75.9252 23.9182 76.4532 23.9182V25.2502H76.1052C75.7532 25.2502 75.4372 25.3102 75.1572 25.4302C74.8852 25.5422 74.6652 25.7382 74.4972 26.0182C74.3372 26.2902 74.2572 26.6702 74.2572 27.1582V30.0142H72.9852Z" fill="white"/>
<path d="M1.15729 2.94665C0.227391 1.754 1.07738 0.0152893 2.58846 0.0152892L23.183 0.0152883C24.9048 0.0152883 25.6603 2.18868 24.3091 3.25661L17.8918 8.32988C17.6553 8.51707 17.4642 8.75538 17.333 9.02693C17.2017 9.29849 17.1336 9.59625 17.1338 9.89787L17.1338 18.1943C17.1338 19.9233 14.9447 20.6752 13.884 19.3094L1.15729 2.94665Z" fill="#9333EA"/>
</svg>
